<svg width="320" height="420" viewBox="0 0 320 420" fill="none" xmlns="http://www.w3.org/2000/svg">
  <rect width="320" height="420" rx="24" fill="#EFEAE0"/>
  <rect x="20" y="20" width="280" height="380" rx="20" fill="#F8F6F1"/>
  <path d="M160 118C184.167 118 204 97.9117 204 73C204 48.0883 184.167 28 160 28C135.833 28 116 48.0883 116 73C116 97.9117 135.833 118 160 118Z" fill="#D7D0C3"/>
  <path d="M231 244C231 206.863 198.689 176 160 176C121.311 176 89 206.863 89 244V248C89 263.464 101.536 276 117 276H203C218.464 276 231 263.464 231 248V244Z" fill="#DBD4C7"/>
  <path d="M248 348C248 303.817 214.183 268 170 268H150C105.817 268 72 303.817 72 348V352C72 371.882 88.1177 388 108 388H212C231.882 388 248 371.882 248 352V348Z" fill="#E2DBCE"/>
  <path d="M64 320C79.464 320 92 307.464 92 292C92 276.536 79.464 264 64 264C48.536 264 36 276.536 36 292C36 307.464 48.536 320 64 320Z" fill="#E6DFD2" opacity="0.7"/>
  <path d="M256 304C269.255 304 280 293.255 280 280C280 266.745 269.255 256 256 256C242.745 256 232 266.745 232 280C232 293.255 242.745 304 256 304Z" fill="#E6DFD2" opacity="0.6"/>
  <path d="M160 404C186.167 404 207.5 382.667 207.5 356.5C207.5 330.333 186.167 309 160 309C133.833 309 112.5 330.333 112.5 356.5C112.5 382.667 133.833 404 160 404Z" stroke="#BFB9AC" stroke-width="3" stroke-linecap="round" stroke-linejoin="round"/>
  <path d="M140 339C147.18 331.333 172.82 331.333 180 339" stroke="#BFB9AC" stroke-width="3" stroke-linecap="round"/>
</svg>

