<svg width="560" height="360" viewBox="0 0 560 360" fill="none" xmlns="http://www.w3.org/2000/svg">
  <rect width="560" height="360" rx="32" fill="#EFEAE0"/>
  <rect x="20" y="20" width="520" height="320" rx="26" fill="#F8F6F1"/>
  <path d="M100 252H460" stroke="#CBC3B6" stroke-width="7" stroke-linecap="round"/>
  <rect x="120" y="108" width="320" height="144" rx="18" fill="#E4DDD1"/>
  <path d="M160 132H400" stroke="#C2BAAD" stroke-width="4" stroke-linecap="round"/>
  <path d="M160 172H320" stroke="#D0C8BA" stroke-width="4" stroke-linecap="round"/>
  <path d="M160 212H360" stroke="#D0C8BA" stroke-width="4" stroke-linecap="round"/>
  <rect x="348" y="160" width="72" height="56" rx="12" fill="#8BD3DD" opacity="0.7"/>
  <path d="M140 256C140 223.281 166.281 197 199 197H361C393.719 197 420 223.281 420 256H140Z" fill="#EDE6DA"/>
  <path d="M214 256C214 239.431 227.431 226 244 226H316C332.569 226 346 239.431 346 256H214Z" fill="#DBD4C7"/>
  <circle cx="248" cy="164" r="22" fill="#D9D2C5"/>
  <circle cx="300" cy="164" r="22" fill="#D9D2C5"/>
  <path d="M248 164H300" stroke="#BFB7AA" stroke-width="4" stroke-linecap="round"/>
  <path d="M122 300H438" stroke="#CFC7BB" stroke-width="8" stroke-linecap="round"/>
</svg>

